<svg width="421" height="39" xmlns="http://www.w3.org/2000/svg" viewBox="0 0 421 39">
    <path fill="#FFF"
          d="M215.5 21.5H228v2.9h-12.5zM7.6 4L6.5 33v.5c0 2.5.7 3 4.6 3.2V38c-2.9-.2-4-.3-5.5-.3-1.6 0-2.7.1-5.6.3v-1.3c3.9-.3 4.5-.7 4.6-3.8L5.8 5.6v-.4c0-2.6-.8-3.1-4.6-3.4V.5c2.2.2 3 .2 4.6.2C7.9.7 9 .6 11.1.4l10.4 28.3L32 .4c2.5.2 3.7.3 5.4.3 1.4 0 2.3-.1 4.4-.2v1.4c-3.8.2-4.6.8-4.6 3.3v.4l.6 27.4c.1 3 .6 3.5 4.6 3.8v1.3c-3.5-.3-4.9-.4-7-.4-2.1 0-3.5.1-7 .4v-1.3c3.8-.2 4.6-.8 4.6-3.5V33l-.5-29-9.2 25-.7 1.8-.8 2.1-.7 2.1-.6 1.8h-.8l-.7-1.7-.8-2.2-.8-2.2-.7-2L7.6 4zM56.9 36.7c-5.1 0-7.3-3.9-7.4-12.6h16.7c-.1-8.6-3.6-13.2-10.2-13.2-6.7 0-10.9 5.4-10.9 14s4.2 13.7 11.4 13.7c5.5 0 9.1-3.4 9.8-9.2H64c-.7 4.8-3.1 7.3-7.1 7.3zm-7.3-14.6c.6-6.4 2.7-9.7 6.3-9.7 3.6 0 5.5 3.1 5.8 9.7H49.6zM69.5 12.9v-1c3.2-.3 5.1-.6 7.4-1.3.3 2.1.4 3 .5 4.6v.6c1.2-3.2 3.6-5 6.5-5 2.8 0 4.9 1.8 4.9 4.5 0 1.6-1 2.7-2.4 2.7-1.3 0-2.3-.8-2.3-1.9 0-.1.1-.3.1-.6l.1-.6v-.5c0-.8-.7-1.3-1.7-1.3-2.9 0-4.8 3.5-4.8 9.1V34c0 2.4.6 2.9 4 3v1.1c-3.1-.3-4.3-.3-6.2-.3-2 0-3.2.1-6.3.3V37c3.4-.2 4-.6 4-3V15.7c-.1-2.4-.3-2.7-3.2-2.7h-.6v-.1zM110.2 10.4v9.2H109c-1-4.9-3.1-7.2-6.5-7.2-4.2 0-6.7 4.5-6.7 12.5 0 7.8 2.2 11.8 6.5 11.8 3.5 0 5.5-2.5 6.2-7.4h2.3c-.7 6-3.9 9.2-9 9.2-6.5 0-10.9-5.5-10.9-13.7 0-8.3 4.5-14 11.1-14 2.4 0 3.9.6 5.7 2.4l1.5-2.9h1v.1zM126.7 36.7c-5.1 0-7.3-3.9-7.4-12.6H136c-.1-8.6-3.6-13.2-10.2-13.2-6.7 0-10.9 5.4-10.9 14s4.2 13.7 11.4 13.7c5.5 0 9.1-3.4 9.8-9.2h-2.2c-.8 4.8-3.2 7.3-7.2 7.3zm-7.3-14.6c.6-6.4 2.7-9.7 6.3-9.7 3.6 0 5.5 3.1 5.8 9.7h-12.1zM162 32.3V0c-2.8.7-5.3 1.2-8.4 1.5v1c3.5 0 4 .4 4 3.3v9.8c-2.1-3.4-3.7-4.4-6.7-4.4-6 0-10.2 5.6-10.2 13.7s4.3 13.7 10.4 13.7c3.2 0 5.4-1.5 6.9-4.6.2 2.1.2 2.3.8 4.5 2.3-.7 3.2-.9 6.5-1.3l.8-.1v-.9c-3.8-.2-4.1-.5-4.1-3.9m-10.5 4.8c-4 0-6.2-4.2-6.2-12.2 0-8.1 2-12.1 6-12.1 4.1 0 6.3 4.3 6.3 12.5 0 7.7-2.1 11.8-6.1 11.8M180.1 36.7c-5.1 0-7.3-3.9-7.4-12.6h16.7c-.1-8.6-3.6-13.2-10.2-13.2-6.7 0-10.9 5.4-10.9 14s4.2 13.7 11.4 13.7c5.5 0 9.1-3.4 9.8-9.2h-2.2c-.8 4.8-3.3 7.3-7.2 7.3zm-7.3-14.6c.6-6.4 2.7-9.7 6.3-9.7 3.6 0 5.5 3.1 5.8 9.7h-12.1zM194.1 38.6v-9.3l1.2-.1c1 5.1 3.4 7.6 7.3 7.6 3.3 0 5.8-2.2 5.8-5 0-1.9-1.1-3.2-3.8-4.4l-2.1-.9-2.6-1.2c-4.1-1.9-5.4-3.5-5.4-6.7 0-4.4 3.5-7.4 8.4-7.4 2.2 0 3.8.5 5.7 1.8l1-2.3h1v8.7h-1.3c-.5-4.5-2.3-6.6-5.9-6.6-3 0-5.3 2-5.3 4.6 0 2.2.8 3 5.9 5.2l2.3 1c4.3 1.8 5.8 3.6 5.8 6.9 0 4.7-3.7 8.1-9 8.1-2.6 0-4.6-.7-6.7-2.4l-1.3 2.5h-1v-.1zM254.5 9.8c0-2.9-1.2-5.5-3.4-7.1-1.9-1.4-4.1-2-7.7-2h-14.7V2c4 .2 4.6.7 4.6 3.7v27.1c0 3-.4 3.4-4.6 3.7V38h14.2c4.1 0 6.4-.5 8.7-2 2.8-1.8 4.6-5.2 4.6-8.7 0-3-1.3-5.8-3.5-7.4-1.2-.9-2.4-1.4-4.4-1.8 4-1.6 6.2-4.4 6.2-8.3zM238 2.4h4.8c4.7 0 6.8 2.3 6.8 7.5 0 2.6-.6 4.4-1.8 5.9-1.2 1.4-2.7 1.8-5.9 1.8H238V2.4zm5.3 16.9c3 0 4.6.5 5.9 1.8 1.3 1.3 2 3.7 2 6.4 0 5.6-2.8 8.7-7.8 8.7h-2c-3 0-3.5-.4-3.5-2.9v-14h5.4zM272.6 36.7c-5.1 0-7.3-3.9-7.4-12.6h16.7c-.1-8.6-3.6-13.2-10.2-13.2-6.7 0-10.9 5.4-10.9 14s4.2 13.7 11.4 13.7c5.5 0 9.1-3.4 9.8-9.2h-2.2c-.8 4.8-3.2 7.3-7.2 7.3zm-7.3-14.6c.6-6.4 2.7-9.7 6.3-9.7 3.6 0 5.5 3.1 5.8 9.7h-12.1zM284.9 13.2v-1c3.2-.4 5.1-.9 7.4-1.7.3 1.3.4 2.7.6 4.9 2-3 4.3-4.4 7.6-4.4 3.4 0 6.3 1.7 7.4 4.5.6 1.3.8 2.9.8 5V34c0 2.4.6 2.9 4 3v1.1c-3-.3-4.1-.3-6.1-.3-2.1 0-3.2.1-6.1.3V37c3-.1 3.8-.7 3.8-2.9V20.4c0-4.9-1.5-6.8-5-6.8-3.8 0-5.8 2.4-5.8 7v13.5c0 2.2.7 2.8 3.6 2.9v1.1c-2.9-.3-4-.3-6-.3s-3.1.1-6 .3V37c3.4-.2 4-.6 4-3V15.9c-.1-2.3-.4-2.6-3.2-2.6-.5-.1-.8-.1-1-.1M314.7 38l15.2-25H323c-3.6 0-4.5.8-6.5 5.8h-1.1l1.3-7.3h19.2l-15.2 25h6.5c3.8 0 5.4-1.5 7-6.6h1.2L334 38h-19.3z"/>
    <path fill="#00ADEF"
          d="M359.7 30.5l-5.2 5.4V38h5.2zM370.7 8.1l5.2-5.3V.7h-5.2zM370.7 37.9v.1h5.2V9.8l-5.2 5.4zM416.8 8.1L413 12c1.3 2.1 2.1 4.7 2.1 7.4 0 7.7-6.3 14-14 14s-14-6.3-14-14 6.3-14 14-14c2.6 0 5 .7 7.1 2l3.8-3.9c-1.9-1.3-4.1-2.3-6.5-2.9-1.4-.3-2.9-.5-4.4-.5-1.5 0-2.9.2-4.3.5-8.5 2-14.9 9.6-14.9 18.8 0 8.9 6.1 16.4 14.3 18.6 1.6.4 3.2.7 5 .7 1.7 0 3.4-.2 5-.7 8.2-2.2 14.3-9.7 14.3-18.6-.1-4.3-1.4-8.1-3.7-11.3"/>
</svg>
